<?xml version="1.0" standalone="no"?>
<!DOCTYPE svg PUBLIC "-//W3C//DTD SVG 20010904//EN"
 "http://www.w3.org/TR/2001/REC-SVG-20010904/DTD/svg10.dtd">
<svg version="1.0" xmlns="http://www.w3.org/2000/svg"
 width="759.000000pt" height="824.000000pt" viewBox="0 0 759.000000 824.000000"
 preserveAspectRatio="xMidYMid meet">

<g transform="translate(0.000000,824.000000) scale(0.100000,-0.100000)"
fill="#000000" stroke="none">
<path d="M0 4120 l0 -4120 3795 0 3795 0 0 4120 0 4120 -3795 0 -3795 0 0
-4120z m4710 3012 c81 -11 139 -22 268 -54 84 -20 116 -31 207 -73 254 -117
237 -106 368 -237 111 -112 204 -226 265 -326 74 -121 172 -359 172 -416 0
-12 4 -26 9 -32 5 -5 14 -38 21 -74 6 -36 17 -96 24 -133 9 -49 9 -72 2 -83
-10 -12 -225 -14 -1591 -17 l-1580 -2 -3 -1453 c-2 -1324 -1 -1455 14 -1477 9
-14 13 -25 10 -25 -4 0 1 -13 10 -30 18 -29 17 -30 -4 -53 l-22 -23 1 -585 c0
-321 4 -608 8 -638 10 -66 -1 -131 -24 -147 -21 -16 -112 -11 -265 12 -134 20
-232 46 -345 91 -367 144 -650 389 -819 707 -80 152 -120 267 -153 451 -17 95
-18 221 -18 2360 l0 2260 70 6 c117 10 3293 1 3375 -9z m125 -2176 c20 -7 33
-46 15 -46 -11 0 -6 -1425 5 -1456 5 -17 2 -23 -17 -29 -29 -10 -1308 -19
-1308 -9 0 4 6 30 14 58 15 51 26 96 65 256 12 47 26 101 31 120 5 19 69 274
140 565 72 292 133 536 135 543 4 11 89 13 452 9 247 -2 457 -7 468 -11z m373
-303 c2 -242 5 -293 16 -293 8 0 38 28 68 63 29 34 58 68 65 75 7 7 29 34 50
60 21 26 76 92 123 148 47 56 111 133 144 173 l59 71 153 0 c85 0 154 -2 154
-5 0 -3 -39 -51 -86 -108 -172 -205 -319 -381 -329 -391 -6 -6 -30 -36 -55
-66 -25 -30 -57 -68 -72 -85 -16 -16 -28 -36 -28 -44 0 -12 59 -80 445 -511
207 -232 250 -281 253 -291 2 -5 -72 -9 -176 -9 l-181 0 -88 99 c-75 84 -184
208 -378 430 -74 86 -114 123 -125 116 -6 -4 -10 -116 -10 -325 l0 -319 -136
-3 c-75 -2 -140 0 -145 3 -13 7 -13 1500 0 1508 5 3 69 4 142 1 l134 -5 3
-292z m862 -2649 l0 -756 -1222 6 c-673 3 -1240 6 -1262 6 -21 0 -44 5 -52 11
-10 8 -14 8 -14 0 0 -13 -96 -15 -104 -2 -4 5 0 12 6 14 8 4 7 6 -4 6 -9 1
-18 5 -20 10 -2 5 -51 6 -113 1 -60 -3 -121 -4 -134 0 -13 3 -47 3 -75 -1 -28
-4 -68 -8 -88 -8 -37 -1 -38 0 -38 37 0 20 4 32 8 27 4 -6 23 -11 42 -10 l35
0 3 643 2 642 85 0 c63 0 84 3 83 13 -2 9 30 12 133 13 124 2 193 14 175 31
-3 3 -57 7 -121 9 -88 2 -115 0 -115 -10 0 -14 -82 -26 -181 -26 -52 0 -59 2
-59 20 0 17 7 20 39 20 25 0 41 5 45 15 4 12 27 15 121 15 74 0 114 4 110 10
-3 5 0 8 7 5 7 -2 119 -1 248 4 129 4 736 8 1348 9 l1112 2 0 -756z m-2812
739 c-15 -2 -42 -2 -60 0 -18 2 -6 4 27 4 33 0 48 -2 33 -4z m-218 -19 c0 -11
-5 -14 -16 -10 -9 3 -24 6 -35 6 -10 0 -19 5 -19 10 0 6 16 10 35 10 25 0 35
-4 35 -16z m-20 -43 c0 -19 -18 -31 -46 -31 -17 0 -19 36 -1 43 27 12 47 7 47
-12z"/>
<path d="M3360 1515 l0 -165 -82 -2 -83 -1 100 -7 c83 -6 102 -4 111 8 6 8 18
13 27 9 9 -3 18 -1 21 6 3 9 5 8 5 -1 1 -7 6 -10 11 -7 6 4 9 69 8 168 -1 89
-4 125 -5 79 l-4 -83 -32 3 -32 3 -3 78 c-3 69 -5 77 -22 77 -19 0 -20 -8 -20
-165z"/>
<path d="M3448 1273 c7 -3 16 -2 19 1 4 3 -2 6 -13 5 -11 0 -14 -3 -6 -6z"/>
</g>
</svg>
